<svg style="position: absolute; width: 0; height: 0;" width="0" height="0" version="1.1" xmlns="http://www.w3.org/2000/svg" xmlns:xlink="http://www.w3.org/1999/xlink">
<defs>
<symbol id="icon-advertising" viewBox="0 0 32 32">
<title>advertising</title>
<path fill="#90caf9" class="path1 fill-color9" d="M11.6 22h-1.6v-2.667h2.667l0.267 1c0.2 0.867-0.467 1.667-1.333 1.667z"></path>
<path fill="#90caf9" class="path2 fill-color9" d="M24.667 24c0 0-7.867-4.667-12-4.667v-9.333c3.867 0 12-4.667 12-4.667v18.667z"></path>
<path fill="#283593" class="path3 fill-color2" d="M9.333 14.667c0 1.841-1.492 3.333-3.333 3.333s-3.333-1.492-3.333-3.333c0-1.841 1.492-3.333 3.333-3.333s3.333 1.492 3.333 3.333z"></path>
<path fill="#283593" class="path4 fill-color2" d="M26.667 12.667h-2v4h2c1.133 0 2-0.867 2-2s-0.867-2-2-2z"></path>
<path fill="#283593" class="path5 fill-color2" d="M12.4 27.467c-0.6 0.4-1.667 0.8-3.067 0.933-0.4 0.067-0.8-0.2-0.933-0.667l-2.933-9.133c0 0 5.867-4.133 5.867 0.733 0 3.667 1 5.6 1.467 6.333 0.333 0.467 0.333 1.067 0 1.533-0.133 0.133-0.267 0.2-0.4 0.267z"></path>
<path fill="#3f51b5" class="path6 fill-color4" d="M6 19.333h6.667v-9.333h-6.667c-0.733 0-1.333 0.6-1.333 1.333v6.667c0 0.733 0.6 1.333 1.333 1.333z"></path>
<path fill="#42a5f5" class="path7 fill-color7" d="M25.333 25.333v0c-0.733 0-1.333-0.6-1.333-1.333v-18.667c0-0.733 0.6-1.333 1.333-1.333v0c0.733 0 1.333 0.6 1.333 1.333v18.667c0 0.733-0.6 1.333-1.333 1.333z"></path>
</symbol>
<symbol id="icon-about" viewBox="0 0 32 32">
<title>about</title>
<path fill="#2196f3" class="path1 fill-color6" d="M24.667 26.667h-17.333l-4 4v-22.667c0-2.2 1.8-4 4-4h17.333c2.2 0 4 1.8 4 4v14.667c0 2.2-1.8 4-4 4z"></path>
<path fill="#fff" class="path2 fill-color10" d="M14.667 13.333h2.667v7.333h-2.667v-7.333z"></path>
<path fill="#fff" class="path3 fill-color10" d="M17.333 10c0 0.736-0.597 1.333-1.333 1.333s-1.333-0.597-1.333-1.333c0-0.736 0.597-1.333 1.333-1.333s1.333 0.597 1.333 1.333z"></path>
</symbol>
<symbol id="icon-address-book" viewBox="0 0 32 32">
<title>address-book</title>
<path fill="#673ab7" class="path1 fill-color3" d="M25.333 29.333h-17.333v-26.667h17.333c1.467 0 2.667 1.2 2.667 2.667v21.333c0 1.467-1.2 2.667-2.667 2.667z"></path>
<path fill="#311b92" class="path2 fill-color1" d="M6.667 2.667h1.333v26.667h-1.333c-1.467 0-2.667-1.2-2.667-2.667v-21.333c0-1.467 1.2-2.667 2.667-2.667z"></path>
<path fill="#fff" class="path3 fill-color10" d="M24 16.133c-0.067 3.2-2.067 4.6-3.533 4.467-0.4-0.067-1.4-0.067-1.933-1.067-0.533 0.667-1.2 1.067-2.067 1.067-1.733 0-2.2-1.667-2.267-2.067-0.067-0.467-0.133-0.933-0.067-1.467 0.067-0.667 0.733-4.333 3.8-4.333 1.467 0 2.333 0.733 2.467 0.867l-0.4 4.533c0 0.2-0.133 1.067 0.733 1.067 1.4 0 1.6-2.6 1.6-3.067 0.067-0.8 0.2-5.467-4.667-5.467-4.6 0-5.267 4.933-5.333 6.133-0.333 5.667 4 5.667 4.8 5.667 1.133 0 2.467-0.467 2.6-0.533l0.267 1.333c-0.2 0.133-1.333 0.733-2.933 0.733-1.467 0-6.733-0.267-6.533-7.2 0.2-1.4 1.067-7.467 7.2-7.467s6.267 5.4 6.267 6.8zM16.067 17c-0.067 0.667 0 1.2 0.133 1.533s0.4 0.533 0.8 0.533c0.067 0 0.2 0 0.267-0.067 0.133-0.067 0.2-0.067 0.333-0.2 0.133-0.067 0.2-0.2 0.333-0.4 0.133-0.133 0.2-0.4 0.267-0.667l0.333-3.6c-0.133-0.067-0.333-0.067-0.467-0.067-0.333 0-0.6 0.067-0.8 0.2s-0.4 0.333-0.6 0.533c-0.133 0.267-0.267 0.533-0.4 0.867s-0.133 0.867-0.2 1.333z"></path>
</symbol>
<symbol id="icon-battery" viewBox="0 0 32 32">
<title>battery</title>
<path fill="#8bc34a" class="path1 fill-color5" d="M22.667 29.333h-13.333c-0.733 0-1.333-0.6-1.333-1.333v-22.667c0-0.733 0.6-1.333 1.333-1.333h13.333c0.733 0 1.333 0.6 1.333 1.333v22.667c0 0.733-0.6 1.333-1.333 1.333z"></path>
<path fill="#8bc34a" class="path2 fill-color5" d="M18.667 8.667h-5.333c-0.4 0-0.667-0.267-0.667-0.667v-4.667c0-0.4 0.267-0.667 0.667-0.667h5.333c0.4 0 0.667 0.267 0.667 0.667v4.667c0 0.4-0.267 0.667-0.667 0.667z"></path>
<path fill="#ffeb3b" class="path3 fill-color8" d="M20 16h-3.667l1.467-7.333-5.8 8.667h3.667l-1.467 7.333z"></path>
</symbol>
</defs>
</svg>
