<svg xmlns="http://www.w3.org/2000/svg" width="300px" height="300px" viewBox="0 0 300 300">
    <style>
        svg {
            fill: #d1d1d1;
        }

        .medium {
            fill: #A9A9A9;
        }

        .dark {
            fill: #787878;
        }

        #arm {
            transform-origin: bottom right;
            animation: swing-arm 1s alternate infinite;
        }

        @keyframes swing-arm {
            0% {
                transform: rotate(10deg);
            }
            100% {
                transform: rotate(-10deg);
            }
        }

        #loader {
            transform-origin: center center;
            animation: spinner .9s steps(8) infinite;
        }

        @keyframes spinner {
            from {
                transform: rotate(0deg);
            }
            to {
                transform: rotate(360deg);
            }
        }
    </style>
    <g id="octocat">
        <path id="body" d="M112.5,234.4v43.1c24.5,7.5,50.5,7.5,75,0V225c-0.4-11.1-4.9-21.6-12.7-29.6c30-3.4,59.5-23.5,59.5-64.1
            c0.9-13.9-3.3-27.7-11.8-38.7c4.1-11.6,3.7-24.4-1.3-35.7c0,0-11.2-3.7-37.5,13.8c-22.1-6.1-45.3-6.1-67.4,0
            C90.6,53.3,78.9,56.8,78.9,56.8c-5,11.3-5.4,24.1-1.3,35.7c-8.5,11.1-12.7,24.8-11.9,38.7c0.2,33.8,26.4,61.8,60.2,64.1
            c-5,4.7-8.1,11.1-8.6,18"/>
        <path id="arm" d="M125.2,213.4c-13.9,7.8-31.5,2.8-39.3-11.2c-4.3-7.7-12-12.8-20.7-13.8c-11.2,0-4.6,6.4,0,9.4
            c6,5.1,10.8,11.5,13.8,18.8c2.9,7.4,7.7,24.1,41.5,17.8"/>
    </g>
    <g id="loader">
        <path class="dark" d="M31,90.6C44,64.8,64.8,44,90.6,31l-6.2-15.7c-30,14.7-54.3,39-69,69L31,90.6L31,90.6z"/>
        <path class="dark" d="M107.9,23.8c27.4-9.3,57-9.3,84.4,0l6.5-15.6c-31.5-11-65.8-11-97.2,0L107.9,23.8L107.9,23.8z"/>
        <path d="M209.4,31C235.2,44,256,64.8,269,90.6l15.6-6.2c-14.7-30-39-54.3-69-69L209.4,31z"/>
        <path d="M291.8,198.6c11-31.5,11-65.7,0-97.2l-15.7,6.5c9.3,27.4,9.3,57,0,84.4L291.8,198.6L291.8,198.6z"/>
        <path d="M269,209.4C256,235.2,235.2,256,209.4,269l6.2,15.7c30-14.7,54.3-39,69-69L269,209.4z"/>
        <path d="M192.1,276.2c-27.4,9.3-57,9.3-84.4,0l-6.5,15.6c31.5,11,65.7,11,97.2,0L192.1,276.2L192.1,276.2z"/>
        <path d="M90.6,269C64.8,256,44,235.2,31,209.4l-15.7,6.2c14.7,30,39,54.3,69,69L90.6,269L90.6,269z"/>
        <path class="medium" d="M23.8,192.1c-9.3-27.4-9.3-57,0-84.4l-15.6-6.5c-11,31.5-11,65.7,0,97.2L23.8,192.1L23.8,192.1z"/>
    </g>
</svg>