<?xml version="1.0" encoding="utf-8"?>
<!-- Generator: Adobe Illustrator 16.0.0, SVG Export Plug-In . SVG Version: 6.00 Build 0)  -->
<!DOCTYPE svg PUBLIC "-//W3C//DTD SVG 1.1//EN" "http://www.w3.org/Graphics/SVG/1.1/DTD/svg11.dtd">
<svg version="1.1" id="Layer_1" xmlns="http://www.w3.org/2000/svg" xmlns:xlink="http://www.w3.org/1999/xlink" x="0px" y="0px"
	 width="215px" height="135px" viewBox="-263 929 215 135" enable-background="new -263 929 215 135" xml:space="preserve">
<g>
	<g id="Disney">
		<path id="letter-d" fill="#FFFFFF" d="M-131.8,1033.6c-0.7-2.1-1.6-4.2-3.3-6.2c-0.7-0.9-1.4-1.8-2.1-2.6
			c-0.7-0.8-1.5-1.6-2.4-2.4s-1.7-1.5-2.6-2.1c-0.9-0.8-1.9-1.5-2.8-2.2c-1-0.7-2-1.4-3-2c-1-0.6-2.1-1.2-3.1-1.8
			c-2.6-1.3-5.3-2.4-8.1-3.3c-5.6-1.7-11.4-2.5-17.2-2.3c-2,0-4,0.3-6.1,1c-0.6,0.2-1.3,0.5-1.9,0.8c-0.6,0.3-1.2,0.6-1.8,1
			c-0.6,0.4-1.1,0.7-1.6,1.2c-0.6,0.5-0.8,1.1-0.5,1.7c0.1,0.4,0.5,0.7,1,0.8c0.2,0.1,0.5,0.2,0.9,0.2c0.9,0.1,1.9-0.2,2.9-0.8
			c0.2-0.2,0.6-0.5,0.5-0.8c0-0.1-0.2-0.4-0.4-0.4c-0.3-0.1-0.7-0.1-1,0.1c0.6-0.4,1.3-0.7,2-0.9c0.4-0.1,0.7-0.1,1.6-0.2
			c0.9-0.1,2.3-0.1,3.7-0.1c2.8,0.1,5.5,0.5,8.3,1.2c2.4,0.7,4.7,1.4,7,2.3s4.6,1.8,6.2,2.5c1.6,0.7,2.5,1.1,3.4,1.6
			c0.9,0.5,1.8,1,2.6,1.6c0.8,0.6,1.7,1.2,2.5,1.8c1,0.8,2,1.6,2.9,2.5c0.9,0.9,1.8,1.8,2.7,2.7c0.5,0.5,0.9,1.1,1.3,1.6
			c0.8,1.2,1.5,2.4,2,3.7c0.3,0.8,0.5,1.7,0.6,2.5c0,0.9-0.1,1.7-0.3,2.6c-0.3,0.8-0.7,1.6-1.2,2.3c-0.5,0.7-1.2,1.3-2.2,1.9
			c-1.1,0.6-2.5,1.3-4,1.9c-3,1.1-6.2,1.6-9.4,1.5c-2.1-0.1-4.2-0.3-6.3-0.6l0,0l-0.1-11.3l0,0c4,0.3,8.1,1.2,12.1,2.5
			c-0.2,0.4-0.4,0.7-0.9,1.1c-0.3,0.2-0.6,0.5-0.8,0.7c-0.2,0.2-0.2,0.5-0.1,0.8c0,0.1,0.1,0.2,0.2,0.3c0.1,0.1,0.3,0.2,0.4,0.3
			c0.5,0.3,1.1,0.4,1.8,0.4c1-0.1,2-0.6,3-1.6c0.3-0.3,0.5-0.6,0.7-1c0.6-1.3,0.6-2.9-0.5-4.4c-0.2-0.3-0.4-0.5-0.7-0.8
			c-0.3-0.2-0.5-0.4-0.8-0.6c-1.6-0.9-3.3-1.6-5-2c-0.9-0.2-1.7-0.4-2.7-0.5c-2-0.3-4.3-0.5-6.4-0.5c0-1.2-0.2-2.5-0.4-3.7
			c-0.1-0.6-0.2-1.2-0.3-1.6c-0.1-0.4-0.2-0.7-0.3-0.9c-0.1-0.2-0.2-0.5-0.2-0.7c-0.1-0.3-0.2-0.5-0.4-0.8c-0.2-0.3-0.6-0.7-1-0.9
			c-0.4-0.2-0.8-0.2-1.3,0.2c-0.1,0.1-0.1,0.2-0.2,0.3c-0.4,1-0.7,2-0.9,3c-0.1,0.5-0.2,1-0.3,1.7c-0.2,1.3-0.3,2.8-0.6,4.2
			c-1.9,0.2-3.8,0.6-5.8,1.1c-0.9,0.3-1.8,0.6-2.6,1c-0.4,0.2-0.9,0.4-1.2,0.6c-0.7,0.4-1.2,0.7-1.8,1.2c-0.3,0.2-0.5,0.4-0.8,0.7
			c-0.7,0.8-1,1.7-0.9,2.7c0.1,0.8,0.5,1.4,1,2.2c0.1,0.2,0.3,0.4,0.6,0.7c0.3,0.3,0.7,0.8,1.2,1.2c0.8,0.8,1.6,1.6,2.4,2.2
			c0.4,0.3,0.7,0.6,1.1,0.8c0.4,0.3,0.8,0.5,1.4,0.9c0.6,0.4,1.5,0.9,2.4,1.5c0.9,0.5,1.8,1.1,2.7,1.6c0,0.2,0.1,0.4,0.1,0.6
			s0.1,0.5,0.2,0.8c0.1,0.3,0.2,0.8,0.3,1.2c0.1,0.3,0.2,0.5,0.3,0.8c0.2,0.2,0.3,0.4,0.6,0.6c0.7,0.6,1.6,0.7,2.4,0.4
			c0.3-0.1,0.6-0.3,0.9-0.5c0.3-0.2,0.5-0.5,0.7-0.8c0.2-0.3,0.3-0.6,0.4-1c1.1,0.2,2.2,0.3,3.3,0.4c1.1,0.1,2.2,0.2,3.2,0.2
			c1.8,0.1,3.2,0,4.8-0.1c2.1-0.2,4.5-0.7,6.6-1.5c1.4-0.5,2.8-1.2,4-2c1.3-0.8,2.5-1.7,3.6-2.7c0.4-0.4,0.8-0.8,1.1-1.2
			c0.7-0.9,1.4-1.8,1.9-2.7C-131.3,1038.7-131,1036.1-131.8,1033.6L-131.8,1033.6L-131.8,1033.6L-131.8,1033.6z M-171.4,1042.5
			c-0.7-0.3-1.3-0.7-1.9-1.1c-0.6-0.4-1-0.7-1.5-1.1c-0.5-0.4-0.9-0.8-1.4-1.2c-0.4-0.4-0.8-0.9-1.1-1.1c-0.2-0.3-0.3-0.4-0.3-0.4
			c-0.1-0.3,0-0.6,0.2-0.8c0.1-0.1,0.2-0.1,0.5-0.3c0.4-0.1,1-0.4,1.7-0.6c0.7-0.2,1.4-0.4,1.9-0.5c0.6-0.1,1.1-0.2,1.4-0.3
			c0.3-0.1,0.5-0.1,1-0.1c0.4,0,1-0.1,1.6-0.1c0.6,0,1.2-0.1,1.8-0.1l0,0l0,9l0,0C-168.7,1043.7-170.1,1043.2-171.4,1042.5
			L-171.4,1042.5L-171.4,1042.5L-171.4,1042.5z"/>
		<path fill="#FFFFFF" d="M-131.3,1046.2c0,0.3,0.1,0.5,0.2,0.8c0.1,0.3,0.3,0.5,0.4,0.7c0.7,0.7,1.5,0.9,2.3,0.8
			c0.4-0.1,0.9-0.3,1.4-0.6c0.5-0.4,0.7-0.9,0.8-1.3c0.1-1.3,0.1-2.6,0.1-3.9c0-1.3,0-2.6-0.1-3.7c0-1.1-0.1-2-0.1-2.8
			c0-0.9-0.1-1.8-0.1-2.3c0-0.6-0.1-0.8-0.1-1.1c0-0.2-0.1-0.5-0.1-0.7c-0.1-0.2-0.1-0.5-0.2-0.7c-0.2-0.5-0.4-0.9-0.9-1.4
			c-0.4-0.4-1-0.6-1.6-0.4c-0.2,0.1-0.3,0.2-0.5,0.3c-0.3,0.3-0.4,0.7-0.6,1.1c-0.1,0.2-0.1,0.4-0.2,0.6c0,0.2-0.1,0.4-0.1,0.8
			c0,0.3-0.1,0.8-0.1,1.3c0,0.5-0.1,0.9-0.1,1.5c-0.1,1.1-0.1,2.4-0.3,3.7C-131.5,1041.3-131.5,1043.8-131.3,1046.2L-131.3,1046.2z"
			/>
		<path fill="#FFFFFF" d="M-91.9,1035.1l0.5,2l0,0c0.2,0.9,0.4,1.9,0.3,2c-0.1,0.2-0.6-0.5-1-1.1c-0.3-0.4-0.6-0.8-1.3-1.7
			c-0.7-0.9-1.8-2.3-2.4-3.1c-0.6-0.8-0.9-1.1-1.1-1.3c-0.5-0.5-0.9-1-1.4-1.3c-0.6-0.4-1.2-0.5-1.9-0.2c-0.2,0.1-0.4,0.2-0.6,0.4
			c-0.2,0.2-0.3,0.4-0.4,0.6c-0.9,1.9-1.4,3.8-1.7,5.7l0,0l-0.6,3.6l0,0c-0.4,1.9-0.4,3.8,0.3,5.7c0.1,0.2,0.2,0.4,0.4,0.6
			c0.6,0.5,1.3,0.7,2.1,0.4c0.2-0.1,0.5-0.2,0.6-0.3c0.6-0.5,0.8-1.1,0.9-1.7c0.3-2.6,0.6-5.2,1-7.8c1.1,2.4,2.5,4.8,4.4,7.1
			c0.7,0.8,1.3,1.5,2,1.7c1,0.4,2.1,0.2,3.2-0.5c0.2-0.2,0.5-0.4,0.7-0.6c0.4-0.4,0.7-0.9,1-1.4c0.9-1.6,1.1-3.3,1-5.1
			c0-1.1-0.2-2.3-0.5-3.4c-0.2-1-0.6-2-1-3c-0.4-1-0.9-1.9-1.4-2.8c-0.6-0.9-1.2-1.7-1.9-2.5c-0.6-0.7-1.2-1-1.9-0.9
			c-0.2,0-0.3,0.1-0.5,0.2c-0.6,0.3-0.7,0.8-0.6,1.3c0.1,0.6,0.2,1.2,0.3,1.8l0,0L-91.9,1035.1L-91.9,1035.1z"/>
		<path fill="#FFFFFF" d="M-84.7,1033c0.7,0.8,1.4,1.1,2.2,1.2l0,0l-1.1,2.4l0,0c-0.2,0-0.3,0.1-0.5,0.2c-0.7,0.6-0.9,1.2-0.6,2
			c0.1,0.2,0.1,0.3,0.3,0.5c-0.7,1.3-1.4,2.5-1.6,3.8c-0.2,1,0.2,2.1,0.7,3.1c0.2,0.4,0.4,0.8,0.6,1.2c0.2,0.3,0.4,0.6,0.7,0.8
			c0.3,0.2,0.6,0.4,0.9,0.6c1.4,0.6,3,0.5,4.6-0.1c1.2-0.4,2.3-0.9,3.4-1.5c1.1-0.5,2.2-1.1,2.8-1.5c0.6-0.3,0.7-0.5,0.9-0.6
			c0.6-0.7,0.5-1.5,0.1-2.3c-0.1-0.2-0.3-0.4-0.5-0.5c-0.9-0.8-2-0.6-3-0.4c-1.1,0.2-2.2,0.5-3.2,0.8c-1.1,0.4-2.2,0.8-2.5,0.4
			c-0.2-0.4,0.5-1.7,1.1-3c0.4,0.1,0.7,0.1,1.1,0.1c1.2,0,2.4,0,3.7,0c0,0,0,0,0.2-0.1c0.4-0.1,1.1-0.3,1.7-0.5
			c0.3-0.1,0.7-0.4,0.9-0.7c0.2-0.4,0.2-0.9,0.1-1.3c-0.1-0.2-0.2-0.4-0.3-0.6c-0.4-0.6-1-0.7-1.5-0.8c-1.3-0.1-2.6-0.1-3.9-0.2l0,0
			l0.1-1.3l0,0c1.1,0.1,2.1,0,3.2-0.1c1.5-0.2,2.9-0.5,4.4-0.7c0.3-0.1,0.6-0.2,0.9-0.5c0.6-0.5,0.7-1,0.4-1.6
			c-0.3-0.5-0.6-0.9-0.9-1.3c-0.4-0.4-0.8-0.7-1.2-1c-0.9-0.6-2-0.8-3.1-0.7c-2.9,0.1-5.6,0.2-8.5,1c-0.7,0.2-1.4,0.5-2.1,0.7
			c-0.3,0.2-0.5,0.4-0.6,0.6C-85.3,1031.6-85.3,1032.3-84.7,1033L-84.7,1033z"/>
		<path fill="#FFFFFF" d="M-118.7,1034.5c4.3-0.5,8.6-1,13-1.5c0.4-0.1,1-0.2,1.5-0.7c0.6-0.6,0.7-1,0.5-1.6
			c-0.1-0.2-0.3-0.5-0.7-0.9c-0.2-0.2-0.4-0.3-0.6-0.4s-0.4-0.2-0.8-0.3c-0.7-0.2-1.5-0.3-2.3-0.4c-0.4,0-0.8-0.1-1.6-0.1
			c-0.8,0-1.9,0-3.1,0.1c-2.3,0.2-4.5,0.7-6.8,1.4c-0.7,0.3-1.5,0.6-2.2,1.1c-0.3,0.2-0.7,0.5-0.9,0.7c-0.9,0.8-1.3,1.5-1.5,2.4
			c-0.1,0.4-0.1,0.8,0,1.2c0.1,0.4,0.2,0.8,0.5,1.2c0.2,0.4,0.5,0.7,0.9,0.9c0.7,0.5,1.5,0.6,2.2,0.8c1.5,0.3,3.1,0,4.6,0
			c1.4,0,2.8,0,4.2,0.3c0.6,0.1,1.3,0.3,1.9,0.5c0.6,0.2,1.2,0.5,1.7,0.8c0.4,0.3,0.5,0.6,0.3,1c-0.1,0.3-0.8,0.8-1.3,1.1
			c-0.2,0.1-0.4,0.2-0.6,0.3c-3.3,1.4-6.7,1.5-10.2,0.4c-0.1-0.1-0.2-0.1-0.3-0.3c-0.1-0.2-0.1-0.5,0.2-0.8c0.3-0.2,0.7-0.2,1.1-0.3
			c0.7,0,1.6,0.1,2.4,0.5c1.3,0.6,2.9,0.8,4.3,0.6c0.7-0.1,1.4-0.3,2.1-0.6c0.1-0.1,0.3-0.2,0.4-0.4c0.1-0.2,0.1-0.4,0.1-0.6
			c-0.1-0.3-0.3-0.7-0.8-1.1c-0.5-0.4-1.2-0.7-1.9-0.9c-0.2-0.1-0.5-0.1-1-0.2c-0.5-0.1-1.2-0.1-1.9-0.1c-0.7,0-1.4,0-2.1,0
			c-0.7,0-1.4,0.1-1.9,0.2c-0.5,0.1-0.8,0.1-1.1,0.2c-0.3,0.1-0.5,0.2-0.8,0.3c-0.3,0.1-0.5,0.3-0.7,0.4c-1,0.7-1.4,1.5-1.4,2.3
			c0,0.2,0,0.5,0.1,0.7c0.1,0.2,0.1,0.5,0.3,0.8c0.2,0.3,0.5,0.8,0.9,1.2c0.4,0.4,0.8,0.8,1.2,1.1c0.4,0.3,0.9,0.6,1.6,0.9
			c0.7,0.3,1.6,0.6,2.6,0.8c0.9,0.2,1.9,0.3,2.9,0.3c1,0,1.9,0,2.6-0.1s1.1-0.2,1.5-0.3s0.8-0.2,1.2-0.4c0.4-0.2,0.8-0.3,1.1-0.5
			c0.3-0.2,0.6-0.3,0.8-0.5s0.5-0.4,0.7-0.6c0.7-0.7,1.1-1.3,1.4-1.9c0.1-0.2,0.2-0.5,0.2-0.9c0.1-0.8,0.1-2.1-0.4-3.2
			c-0.2-0.5-0.5-1-0.8-1.5c-0.3-0.4-0.7-0.8-1.1-1.1c-0.9-0.7-1.9-1-2.9-1.1c-2.2-0.2-4.5-0.4-6.8-0.8
			C-116.9,1034.9-117.8,1034.7-118.7,1034.5L-118.7,1034.5z"/>
		<path fill="#FFFFFF" d="M-114.4,1016.4c-0.1-0.4-0.2-0.7-0.3-1s-0.3-0.5-0.6-0.7c-0.8-0.7-1.7-0.9-2.6-0.7
			c-0.1-0.2-0.2-0.4-0.4-0.6c-0.3-0.4-0.8-0.7-1.2-0.8c-0.8-0.2-1.6-0.3-2.4-0.3c-0.4,0-0.8,0-1.6,0.1c-0.7,0.1-1.8,0.3-2.9,0.6
			c-1.1,0.3-2.1,0.7-3,1.2c-1,0.5-1.9,1.1-2.8,1.8c-0.4,0.3-0.7,0.6-1,0.9c-1.3,1.5-2.1,3.1-2.1,4.6c0,0.4,0,0.8,0.1,1.2
			c0.1,0.6,0.3,1.1,0.5,1.6c0.2,0.5,0.6,1.1,0.9,1.8c0.2,0.4,0.4,0.7,0.5,1s0.2,0.4,0.3,0.5c0.1,0.1,0.2,0.2,0.3,0.3
			c0.3,0.2,0.7,0.2,1.2,0.1c0.3,0,0.5-0.1,0.8-0.2c0.2-0.1,0.5-0.3,0.7-0.5c0.2-0.2,0.3-0.5,0.5-0.6c0.2-0.1,0.4,0.1,0.6,0.2
			c0.2,0.1,0.4,0.2,0.7,0.2c0.2,0,0.5,0.1,0.8,0.1c0.4,0,0.9,0,1.3-0.1c0.4,0,0.8-0.1,1.1-0.1c0.3,0,0.4-0.1,0.7-0.1
			c0.6-0.1,1.8-0.4,2.7-0.7c0.9-0.4,2-1,3-1.8c1.1-0.9,2.1-2,2.8-3c0.8-1.1,1.2-2.2,1.3-3.3
			C-114.3,1017.5-114.3,1016.9-114.4,1016.4L-114.4,1016.4L-114.4,1016.4L-114.4,1016.4z M-129.2,1019.3c-0.8,0.7-1.5,1.5-2.2,2.3
			c0.2-0.6,0.4-1.2,0.7-1.8c0.3-0.6,0.7-1.1,1.2-1.6c0.5-0.5,1-0.9,1.5-1.2c1.4-0.8,2.8-1.2,4.1-1.4c-1,0.5-1.9,1-2.8,1.6
			C-127.5,1017.9-128.4,1018.6-129.2,1019.3L-129.2,1019.3L-129.2,1019.3L-129.2,1019.3z M-118.6,1018.9c-0.1,0.5-0.3,1-0.7,1.4
			c-0.2,0.2-0.4,0.4-0.6,0.5c-0.5,0.4-1.1,0.7-1.7,1c-1.1,0.6-2.3,1.2-3.5,1.5c-1.2,0.2-2.4,0.2-3.6-0.1c0.6-0.8,1.2-1.6,1.9-2.3
			c0.7-0.7,1.5-1.3,2.4-1.8c0.9-0.5,1.8-0.9,2.7-1.2c0.7-0.2,1.4-0.3,2.1-0.2c0.2,0,0.4,0.1,0.5,0.3
			C-118.6,1018.4-118.6,1018.7-118.6,1018.9L-118.6,1018.9L-118.6,1018.9L-118.6,1018.9z"/>
		<path fill="#FFFFFF" d="M-49.3,1036.5c0-0.7-0.1-1.4-0.3-2c-0.2-0.7-0.5-1.3-0.8-1.9c-0.4-0.6-0.8-1.1-1.3-1.6
			c-1-0.8-2.2-1.1-3.3-0.7c-0.4,0.1-0.7,0.3-1.6,1c-0.9,0.7-2.4,1.9-3.8,3.1c-1.4,1.2-2.8,2.5-4.1,3.9c0.3-0.9,0.6-1.7,1-2.6
			c0.4-0.8,0.8-1.7,1.1-2.3c0.3-0.6,0.5-1,0.7-1.4c0.2-0.4,0.4-0.8,0.5-1.1c0.2-0.6,0.2-0.8,0.2-1.2c0-0.2,0-0.4-0.1-0.5
			c0-0.1-0.1-0.2-0.1-0.3c-0.4-0.5-1-0.3-1.6,0c-0.1,0.1-0.2,0.2-0.5,0.4s-0.6,0.6-1,1c-0.4,0.4-0.7,0.8-1.1,1.2
			c-0.5,0.6-1,1.3-1.5,2c-0.4,0.7-0.9,1.4-1.2,2.1c-0.4,0.7-0.7,1.5-0.9,2c-0.2,0.5-0.3,0.8-0.3,1.1c-0.1,0.3-0.1,0.6-0.1,0.9
			c0,0.3,0,0.6,0,1c0,0.8,0.2,1.8,0.4,2.7c0.1,0.5,0.3,0.9,0.4,1.4c-0.6,1.4-1.2,2.8-1.7,4.2c-0.5,1.4-0.9,2.9-1.3,4.4
			c-0.3,1.5-0.6,3-0.7,3.9c-0.1,0.9-0.1,1.2-0.1,1.5c0.1,1.4,0.7,2.7,2.1,4.1c0.9,0.8,2,0.8,3.1-0.1c0.6-2.3,1.2-4.6,1.7-6.9l0,0
			l0.6-1.8l0,0c0.2-0.6,0.5-1.2,0.8-2.1c0.4-0.9,0.8-2.1,1.3-3.3c0.6-0.1,1.1-0.2,1.7-0.3c0.6-0.1,1.1-0.3,1.6-0.4
			c0.9-0.2,1.5-0.5,2.3-0.9c0.3-0.2,0.7-0.4,1.1-0.7c0.4-0.3,1-0.7,1.5-1.1c0.5-0.4,1.1-0.9,1.5-1.3c0.9-0.8,1.5-1.6,2.1-2.4
			C-49.7,1039.9-49.2,1038.3-49.3,1036.5L-49.3,1036.5L-49.3,1036.5L-49.3,1036.5z M-53.9,1039.1c-0.3,0.5-0.7,0.9-1.1,1.3
			c-0.8,0.6-1.6,1.2-2.4,1.7c-0.7,0.4-1.3,0.4-1.9,0.1c0.4-0.9,0.8-1.7,1.3-2.5s1-1.6,1.6-2.3s1.2-1.4,1.9-2.1
			c0.3-0.3,0.6-0.3,0.9-0.2c0.3,0.1,0.5,0.5,0.5,0.7C-53,1037-53.3,1038.1-53.9,1039.1L-53.9,1039.1L-53.9,1039.1L-53.9,1039.1z"/>
	</g>
	<g id="Castle">
		<polygon fill="#FFFFFF" points="-197.9,1001.9 -201.1,994.8 -203.8,994.8 -207.6,1001.9 		"/>
		<polygon fill="#FFFFFF" points="-203.4,993.3 -201.6,993.3 -202.3,991.2 		"/>
		<polygon fill="#FFFFFF" points="-191.6,994.7 -193,1002 -100.6,1002.1 -103.2,994.7 -105.9,994.7 -107.7,996.7 -109.6,994.7 		"/>
		<polygon fill="#FFFFFF" points="-178,985.9 -182.7,976.9 -186.1,976.9 -191.5,985.9 		"/>
		<polygon fill="#FFFFFF" points="-134.1,975.9 -134.1,967.2 -136.3,967.2 -136.3,964.5 -148,964.5 -148,967.2 -150,967.2 
			-150.6,969.3 -152.4,966.4 -155.6,973.5 -157.3,973.5 -156.8,971.6 -159.8,964.4 -161.5,964.5 -164.9,971.6 -164.5,973.5 
			-165.8,973.5 -165,975.9 		"/>
		<polygon fill="#FFFFFF" points="-136.3,963.5 -136.3,959.2 -134.7,955.8 -136.3,954.2 -136.3,950.4 -147.9,950.4 -147.9,954.2 
			-149.4,955.8 -148,959.2 -148,963.5 		"/>
		<polygon fill="#FFFFFF" points="-185.6,976.2 -182.9,976.2 -184.2,973.6 		"/>
		<polygon fill="#FFFFFF" points="-202.5,988.3 -202.5,986 -207.7,987.4 		"/>
		<polygon fill="#FFFFFF" points="-184.2,970.5 -184.2,968.1 -189.4,969.5 		"/>
		<polygon fill="#FFFFFF" points="-160.8,958.7 -160.8,956.4 -166,957.7 		"/>
		<polygon fill="#FFFFFF" points="-126.8,969.3 -126.8,967 -132,968.4 		"/>
		<polygon fill="#FFFFFF" points="-114.3,977.1 -114.3,974.7 -119.5,976.1 		"/>
		<path fill="#FFFFFF" d="M-191.1,991.4c0,0.8-0.1,1.5-0.3,2.2c23.6,0,47.2,0,70.7,0c-0.5-0.6-1-1.3-1.4-2c-0.8-1.5-1.4-3-1.7-4.6
			l0,0h-5.4l-0.6,0.8l-1-0.8l-42,0l-1.6,4l-3.3,0l1.8-4h-15.8l0,0C-191.2,988.4-191.1,989.9-191.1,991.4L-191.1,991.4z"/>
		<polygon fill="#FFFFFF" points="-114.3,980 -116.6,985.8 -112.4,985.8 		"/>
		<polygon fill="#FFFFFF" points="-112.1,987 -117,987 -119.3,993.6 -109.8,993.6 		"/>
		<path fill="#FFFFFF" d="M-96.4,1026.7l-1.7-6.1l-16.4,0l0,0c-0.4,0.9-1,1.7-1.6,2.4c-0.6,0.8-1.3,1.5-2,2.1
			c-0.7,0.6-1.6,1.2-2.4,1.6l0,0L-96.4,1026.7L-96.4,1026.7z"/>
		<path fill="#FFFFFF" d="M-134.1,949.8c-0.1,0.1-0.1,0.1-0.2,0.2c8.6,1.8,16.9,5.1,24.4,9.7c7.5,4.6,14.1,10.6,19.5,17.6
			c5.4,7,9.5,14.9,12.1,23.3c2.6,8.4,3.7,17.3,3.2,26.1l0,0h1.1l0,0c0.6-9-0.4-18-3-26.6s-6.8-16.7-12.3-23.8
			c-5.5-7.1-12.3-13.2-20-17.9c-7.7-4.7-16.2-7.9-25-9.6C-133.9,949.1-133.9,949.4-134.1,949.8L-134.1,949.8z"/>
		<path fill="#FFFFFF" d="M-142,934.1l-7.3,14.8l0,0c-0.1,0.2-0.2,0.4,0.1,0.7c0.1,0.1,0.2,0.1,0.4,0.1c4.5,0,9,0,13.5,0
			c0.2,0,0.3,0,0.5-0.3c0.1-0.2,0.1-0.4,0-0.6l0,0L-142,934.1L-142,934.1z"/>
		<polygon fill="#FFFFFF" points="-142,929.4 -147.2,930.8 -142,931.7 		"/>
		<path fill="#FFFFFF" d="M-149.2,946.6c-7.1-0.4-14.3,0.1-21.3,1.7c-7,1.5-13.7,4.1-19.9,7.5s-11.9,7.9-15.9,11.4
			c-4,3.6-6.3,6.3-8.5,9.2c-2.1,2.9-4.1,5.8-5.8,9c-1.7,3.1-3.2,6.4-4.2,8.6c-1,2.3-1.7,3.5-2.2,4.9c-0.5,1.3-1,2.6-1.5,4
			c-0.5,1.4-1.2,2.8-1.9,4.2l0,0l2.5,1.2l0,0c0.5-2.8,1.3-5.6,2.2-8.4c0.5-1.4,1-2.7,2-5c1-2.3,2.5-5.4,4.2-8.5c1.7-3,3.6-6,5.7-8.7
			c2.1-2.8,4.4-5.5,8.3-9s9.4-7.8,15.5-11.3c6-3.4,12.6-6,19.4-7.6c6.8-1.6,13.8-2.3,20.8-2l0,0L-149.2,946.6L-149.2,946.6z"/>
		<polygon fill="#FFFFFF" points="-126.7,971.9 -128.2,975.9 -125.1,975.9 		"/>
		<polygon fill="#FFFFFF" points="-167.2,985.9 -169.7,977.9 -172.4,985.9 		"/>
		<path fill="#FFFFFF" d="M-129.1,985.9h5.5v-2.8l1.1-1.3l-2.3-4.8h-3.8l-1.8,4.8l1.2,1.3l0,0C-129.1,984-129.1,984.9-129.1,985.9
			L-129.1,985.9z"/>
		<path fill="#FFFFFF" d="M-164.5,985.9h33.3l0,0c-0.5-0.9-0.9-1.9-1.3-2.9c-0.8-2-1.3-4.1-1.6-6.1l0,0l-30.3,0l0,0
			C-163.6,979.8-163.6,982.9-164.5,985.9L-164.5,985.9z"/>
		<path fill="#FFFFFF" d="M-210.4,1025.9c0.2,0.2,0.3,0.4,0.4,0.6l0,0l41.6,0l0-6.1l-42,0l-1.4,5l0,0c0.2,0,0.5,0,0.7,0.1
			C-210.8,1025.6-210.6,1025.7-210.4,1025.9L-210.4,1025.9z"/>
		<path fill="#FFFFFF" d="M-188.8,1011.9c-7.2,0-14.4,0-21.6,0l0,0l0,6h42.1l0,0c0.2-1,0.5-2.1,0.9-3.2c-4.8-1.5-9.8-2-14.8-1.4
			c-0.1,0.4-0.2,0.8-0.4,1.2c-0.2,0.4-0.5,0.7-0.8,1c-1,0.8-2.3,1-3.5,0.5c-0.4-0.2-0.7-0.4-1-0.7c-0.6-0.6-1-1.4-1-2.2
			C-189,1012.7-188.9,1012.3-188.8,1011.9L-188.8,1011.9z"/>
		<path fill="#FFFFFF" d="M-125.7,1011.9L-125.7,1011.9l-16.4,0l0,0c0.5,0.6,1,1.2,1.4,1.9c0.9,1.4,1.6,2.8,2.1,4.2l0,0l3.4,0l0,0
			c0.8-1,1.7-1.9,2.7-2.7c1-0.8,2.1-1.5,3.2-2C-128.1,1012.7-126.9,1012.2-125.7,1011.9L-125.7,1011.9z"/>
		<path fill="#FFFFFF" d="M-178.7,1008.1c2.6-0.4,5.2-0.5,7.8-0.3c2.6,0.2,5.2,0.7,7.7,1.5c1.7-1.1,3.6-2.1,5.3-2.5
			c0.6-0.2,1.2-0.3,1.9-0.3c0.6-0.1,1.3-0.1,2.2-0.1c1,0,2.2,0.2,3.5,0.4c1.2,0.3,2.4,0.7,3.6,1.3c1.1,0.6,2.2,1.3,3.2,2.1l0,0h49.4
			l-5.9-6.6l-108.6-0.2l-4.9,6.8l27.3,0l0,0C-183.8,1009.3-181.3,1008.6-178.7,1008.1L-178.7,1008.1z"/>
		<path fill="#FFFFFF" d="M-98,1011.9l-20.5,0l0,0c0.7,0.1,1.4,0.4,2,0.7s1.2,0.8,1.7,1.4c0.5,0.5,0.9,1.2,1.2,1.8
			c0.3,0.7,0.4,1.4,0.5,2.1l0,0l15.1,0V1011.9L-98,1011.9z"/>
		<path fill="#FFFFFF" d="M-229.1,1015.8c-0.3-0.6-0.6-1.2-0.9-1.8c-0.4,4.2-0.5,8.4-0.5,12.6l0,0h0.9l0,0
			C-229.5,1022.9-229.3,1019.3-229.1,1015.8L-229.1,1015.8L-229.1,1015.8L-229.1,1015.8z"/>
		<path fill="#FFFFFF" d="M-135.7,1020.6l-2.1-0.1l3,6.2l0,0C-135.5,1024.7-135.8,1022.6-135.7,1020.6L-135.7,1020.6L-135.7,1020.6
			L-135.7,1020.6z"/>
		<polygon fill="#FFFFFF" points="-160.7,961.8 -161.3,963.2 -160.1,963.2 		"/>
		<polygon fill="#FFFFFF" points="-103.5,993.6 -104.6,990.7 -105.7,993.6 		"/>
		<path fill="#FFFFFF" d="M-91.9,1035.1c-0.5-1.9-1-3.7-1.5-5.6l0,0L-91.9,1035.1L-91.9,1035.1z"/>
	</g>
	<g id="Walt">
		<path fill="#FFFFFF" d="M-202.3,1038.7c0.2-1.1,0.4-2.4,0.7-3.7c0.2-0.7,0.4-1.3,0.5-1.9c0.2-0.6,0.3-1.1,0.5-1.6
			c0.1-0.5,0.3-1,0.4-1.4c0.1-0.7,0.1-0.8,0.1-1.2c0-0.3-0.1-0.7-0.3-1c-0.5-0.7-1.1-0.8-1.8-0.7c-0.5,0.1-0.9,0.5-1.2,0.9
			c-0.1,0.2-0.3,0.3-0.4,0.5c-0.1,0.2-0.2,0.4-0.4,0.8c-0.2,0.4-0.5,1.1-0.8,1.7c-0.8,1.9-1.4,4-1.8,5.9c-0.1,0.6-0.2,1.3-0.3,1.9
			c-0.1,1.2-0.1,2.4-0.1,3.6c0,0.5,0,1.1,0.1,1.6c0,0.5,0.1,0.9,0.3,1.3s0.4,0.8,0.6,1.1c0.5,0.6,1.1,1,1.5,1.3
			c0.8,0.4,1.5,0.4,2.4,0.3c1.1-0.1,2.2-0.7,3.3-1.5c0.3-0.2,0.5-0.4,0.9-0.7c0.8-0.6,1.8-1.5,2.8-2.4c0,0.9,0,1.7,0,2.6
			s0.1,1.7,0.2,2.3c0.1,0.6,0.1,0.9,0.2,1.2c0.2,0.7,0.4,1.3,0.8,1.9c0.2,0.3,0.5,0.7,0.8,1c0.3,0.3,0.7,0.5,1.1,0.7
			c0.4,0.2,0.9,0.2,1.2,0.2c0.3,0,0.5,0,0.6-0.1c0.3-0.1,0.5-0.2,0.7-0.6c0.2-0.3,0.3-0.8,0.3-1.2c0-0.2,0-0.4,0-0.8
			c0-0.4,0-1,0-1.5s0-1.1,0-2c0-0.9,0-2.1,0.1-3.3c0.1-2.3,0.5-4.7,1.1-7c1.2-0.3,2.5-0.6,3.1-0.8c0.7-0.2,0.8-0.2,0.9-0.3
			c0.1,0,0.2-0.1,0.3-0.1c0.2-0.1,0.5-0.4,0.9-0.7c1.4-1.4,1.7-3,1-4.6c-0.2-0.5-0.4-0.9-0.8-1.4c-0.2-0.2-0.3-0.4-0.5-0.6
			c-0.2-0.2-0.4-0.3-0.6-0.4c-0.2-0.1-0.5-0.2-0.8-0.2c-0.7-0.1-1.7-0.1-2.6,0.2c-0.4,0.2-0.8,0.4-1.5,0.9s-1.5,1.2-2.3,1.9
			c-1-0.1-1.9-0.3-2.9-0.6c-0.5-0.1-0.9-0.3-1.3-0.5c-0.3-0.2-0.6-0.3-0.8-0.5c-0.2-0.2-0.4-0.4-0.5-0.6c-0.1-0.2-0.2-0.5-0.3-0.6
			c-0.2-0.3-0.3-0.3-0.5-0.4c-0.2-0.1-0.4-0.1-0.6,0c-0.3,0.1-0.6,0.2-0.9,0.7c-0.2,0.3-0.3,0.7-0.4,1c-0.1,0.3-0.1,0.5,0,0.8
			c0,0.3,0.1,0.8,0.2,1.2c0.3,0.8,0.7,1.5,1.7,2.1c0.5,0.3,1.1,0.7,1.7,1.1s1.2,0.7,1.9,1c-0.4,1.6-0.8,3.1-1,4.7l0,0l-1.8-0.2
			l-4.2,1.4l0,0c-0.5,0.2-1,0.2-1.6,0c-0.4-0.3-0.4-0.6-0.2-1l0,0l0.1-0.2l0,0C-202.4,1039.8-202.4,1039.3-202.3,1038.7
			L-202.3,1038.7z"/>
		<path fill="#FFFFFF" d="M-207.3,1043.1c0-0.7,0-1.3,0-1.8c0-0.4,0-0.6-0.1-0.8s-0.1-0.4-0.3-1.9c-0.3-1.5-0.8-4.4-1.2-6.1
			c-0.3-1.7-0.5-2.2-0.6-2.7c-0.3-1-0.7-1.9-1.1-2.9c-0.1-0.1-0.2-0.3-0.3-0.4c-0.1-0.1-0.3-0.2-0.5-0.2c-0.3-0.1-0.8,0-1.3,0.2
			c-0.3,0.1-0.5,0.3-0.7,0.4c-0.5,0.4-0.8,1.1-1.2,1.7c-0.3,0.3-0.5,0.6-0.8,1c-0.3,0.4-0.6,0.8-1,1.2c-0.3,0.4-0.6,0.8-1.1,1.5
			s-1,1.6-1.6,2.6c-0.6,1-1.1,2-1.6,3l0,0l-1.3-0.1l0,0c0.7-2.2,1.2-4.4,1.5-6.7c0.2-2.3,0.2-4.8-0.1-7.3c-0.2-1.3-0.4-2.5-0.8-3.8
			c-0.4-1.2-0.8-2.4-1.2-3.3c-0.4-0.9-0.7-1.4-0.9-1.9c-0.3-0.5-0.6-1-1-1.5c-0.3-0.5-0.7-0.9-1.2-1.5c-0.5-0.5-1-1.1-1.6-1.8
			s-1.1-1.2-1.6-1.7c-0.4-0.4-0.8-0.7-1.1-0.9c-0.3-0.2-0.7-0.4-1.1-0.5c-0.4-0.1-0.8-0.2-1-0.2c-0.5-0.1-0.6,0-0.8,0.2
			c-0.4,0.3-0.5,0.6-0.4,0.9c0,0.1,0.1,0.1,0.3,0.4s0.7,0.8,1.1,1.3c0.8,1,1.6,2,2.1,2.9c0.2,0.4,0.5,0.9,0.7,1.4
			c0.3,0.6,0.6,1.3,0.9,2c0.6,1.4,1.2,2.7,1.5,4c0.2,0.6,0.3,1.2,0.4,1.9c0.1,0.6,0.2,1.3,0.2,2c0.1,2.2,0,4.6-0.4,6.8
			c-0.3,2.2-1,4.4-2.1,6.7c-0.5,1-1.2,2-1.9,2.9c-0.7,0.9-1.5,1.7-2.4,2.5s-1.9,1.4-2.9,2c-0.7,0.4-1.5,0.7-2.3,0.8
			c-0.4,0.1-0.8,0.1-1.2,0.1c-0.6,0-1.1-0.1-1.7-0.3c-0.3-0.1-0.5-0.2-0.7-0.4c-0.2-0.2-0.5-0.4-0.6-0.6c-0.4-0.5-0.6-1-0.6-1.6
			c0.6-0.5,1.2-1,1.7-1.5c0.6-0.5,1.1-1.1,1.6-1.7c1-1.1,1.8-2.2,2.4-3.2c0.3-0.5,0.6-1,0.9-1.5s0.5-1.1,0.8-1.8
			c0.3-0.7,0.5-1.7,0.6-2.7c0.1-1,0.1-2-0.1-3c-0.2-1-0.5-1.9-0.7-2.6c-0.3-0.6-0.5-1-0.7-1.3c-0.2-0.3-0.5-0.6-0.9-0.8
			c-1.1-0.7-2.3-0.8-3.5-0.7c-0.4,0-0.8,0.1-1.5,0.4s-1.7,0.7-2.6,1.3s-1.7,1.3-2.4,2.1c-0.7,0.8-1.2,1.8-1.5,2.5
			c-0.4,0.8-0.5,1.3-0.7,1.9c-0.5,1.7-0.9,3.4-0.9,5.1c0,0.5,0,1.1,0.1,1.6c0.1,0.5,0.2,1.1,0.3,2.1c0.2,1,0.4,2.5,0.6,4
			c-0.4,0.4-0.9,0.7-1.4,0.8c-0.3,0.1-0.5,0.1-1,0c-0.4-0.1-1.1-0.2-1.6-0.5c-0.6-0.3-1.1-0.6-1.5-1.1c-0.4-0.4-0.8-1-1.1-1.5
			c-0.6-1.2-0.6-2.5-0.6-3.8c0-0.7,0-1.3,0.1-2c0.1-0.7,0.2-1.3,0.3-2.2c0.2-0.9,0.4-1.9,0.7-3c0.3-1.1,0.6-2.1,1-3.3
			c0.4-1.2,0.9-2.5,1.6-3.8c0.6-1.3,1.4-2.5,2.2-3.7c0.8-1.2,1.8-2.3,2.4-3c0.6-0.7,0.9-1,1.2-1.3c0.3-0.3,0.6-0.6,0.8-0.8
			c0.4-0.4,0.6-0.6,0.8-0.9c0.5-0.6,0.7-1,0.4-1.6c-0.2-0.3-0.5-0.4-0.8-0.4c-0.1,0-0.2,0-0.5,0.1c-0.5,0.1-1.4,0.5-2.1,0.9
			c-0.9,0.5-1.6,1.1-2.4,1.7c-0.5,0.4-0.9,0.7-1.3,1.1c-0.8,0.7-1.4,1.3-2,2c-0.3,0.3-0.6,0.7-1,1.3c-0.4,0.6-1.1,1.6-1.6,2.5
			c-0.6,1-1.1,2-1.5,3c-0.5,1-0.9,2-1.2,3c-0.3,1-0.6,1.8-0.8,2.7c-0.2,0.9-0.4,1.8-0.6,2.5c-0.3,1.4-0.4,2.3-0.5,3.5
			c-0.2,2.2,0,4.3,0.8,6.5c0.2,0.5,0.4,1,0.7,1.5c0.3,0.5,0.6,0.9,1,1.3c0.8,0.8,1.7,1.3,2.5,1.7c0.4,0.2,0.9,0.4,1.3,0.5
			c1.3,0.4,2.4,0.7,3.6,0.4c1-0.2,1.9-0.6,2.8-0.8c0.3-0.1,0.6-0.1,0.9-0.2c0.3,0.4,0.7,0.8,1,1.1s0.7,0.8,1.2,1.2
			c0.5,0.5,1.1,1,1.8,1.4c0.7,0.4,1.4,0.8,2.2,1c0.8,0.2,1.6,0.4,2.7,0.4c1.1,0,2.5-0.1,3.8-0.4c1.3-0.3,2.6-0.8,3.9-1.4
			c1.2-0.6,2.4-1.4,3.1-2c0.8-0.6,1.2-1,1.6-1.5c0.4-0.4,0.8-0.9,1.2-1.3c0.4-0.5,0.8-0.9,1.1-1.3c0.6-0.7,0.8-1.2,1.1-1.7
			c0.2-0.3,0.3-0.6,0.4-0.9l0,0l1.2,0.4l-1.2,3.8l0,0c-0.2,0.6-0.2,1.4-0.1,2.1c0.1,0.3,0.2,0.7,0.4,0.9c0.2,0.3,0.3,0.5,0.6,0.7
			c0.5,0.4,1.1,0.6,1.7,0.5c0.3,0,0.6-0.1,0.8-0.2c0.2-0.1,0.3-0.2,0.5-0.3c0.6-0.5,0.7-1.1,1-1.6c0.5-1.2,0.9-2.4,1.4-3.5
			c0.1-0.2,0.1-0.3,0.1-0.5l0,0l4.9-0.1l0,0c0.1,0.6,0.1,1.2,0.1,1.5c0,0.3,0,0.4,0.1,0.5c0,0.1,0,0.2,0.1,0.3
			c0,0.1,0.1,0.2,0.1,0.3c0.1,0.2,0.2,0.5,0.4,0.7c0.1,0.3,0.3,0.5,0.4,0.8c0.3,0.5,0.5,0.6,0.8,0.8c0.6,0.3,1.2,0.5,1.9-0.4
			c0.2-0.3,0.3-0.5,0.4-0.8c0.1-0.3,0.2-0.8,0.2-1.2c0-0.2,0-0.4,0-0.8C-207.3,1044.5-207.3,1043.8-207.3,1043.1L-207.3,1043.1
			L-207.3,1043.1L-207.3,1043.1z M-244,1038.3c-0.2-0.6-0.3-1.2-0.4-1.9c-0.2-1.3-0.2-2.5,0-3.9c0.1-0.7,0.2-1.5,0.4-2.3
			c0.2-0.8,0.4-1.6,0.5-2.1c0.1-0.5,0.2-0.8,0.3-1c0.2-0.5,0.4-0.9,0.6-1.4c0.1-0.1,0.1-0.2,0.2-0.3c0.2-0.2,0.4-0.3,0.7-0.3l0,0
			l-0.1,0l0,0c0.3,0,0.6,0,0.8,0.3c0.2,0.3,0.4,0.6,0.5,1c0.2,0.9,0.2,1.7,0.1,2.6c0,0.4,0,0.7-0.1,1.2c-0.1,0.5-0.2,1.2-0.3,1.9
			c-0.1,0.7-0.3,1.4-0.5,2c-0.2,0.6-0.4,1.1-0.7,1.6c-0.3,0.5-0.6,0.9-1,1.4C-243.1,1037.6-243.6,1037.9-244,1038.3L-244,1038.3
			L-244,1038.3L-244,1038.3z M-212.8,1037.8c-0.5,0.4-1,0.3-1.4-0.2c0.4-0.8,0.8-1.5,1.1-2.3l0,0l0.5,2.2l0,0
			C-212.6,1037.6-212.7,1037.7-212.8,1037.8L-212.8,1037.8L-212.8,1037.8L-212.8,1037.8z"/>
		<path fill="#FFFFFF" d="M-241.5,1025.2C-241.5,1025.2-241.6,1025.2-241.5,1025.2L-241.5,1025.2l0.7,0.3l0,0
			C-241.1,1025.3-241.3,1025.2-241.5,1025.2L-241.5,1025.2L-241.5,1025.2L-241.5,1025.2z"/>
	</g>
</g>
</svg>
