<svg version="1" xmlns="http://www.w3.org/2000/svg">
    <symbol id="icon-about" viewBox="0 0 48 48">
        <path fill="#2196F3" d="M37,40H11l-6,6V12c0-3.3,2.7-6,6-6h26c3.3,0,6,2.7,6,6v22C43,37.3,40.3,40,37,40z"/>
        <g fill="#fff">
            <rect x="22" y="20" width="4" height="11"/>
            <circle cx="24" cy="15" r="2"/>
        </g>
    </symbol>

    <symbol id="icon-approval" viewBox="0 0 48 48">
        <polygon fill="#8BC34A" points="24,3 28.7,6.6 34.5,5.8 36.7,11.3 42.2,13.5 41.4,19.3 45,24 41.4,28.7 42.2,34.5 36.7,36.7 34.5,42.2 28.7,41.4 24,45 19.3,41.4 13.5,42.2 11.3,36.7 5.8,34.5 6.6,28.7 3,24 6.6,19.3 5.8,13.5 11.3,11.3 13.5,5.8 19.3,6.6"/>
        <polygon fill="#CCFF90" points="34.6,14.6 21,28.2 15.4,22.6 12.6,25.4 21,33.8 37.4,17.4"/>
    </symbol>
    
    <symbol id="icon-automatic" viewBox="0 0 48 48">
        <path fill="#3F51B5" d="M39,43H9c-2.2,0-4-1.8-4-4V9c0-2.2,1.8-4,4-4h30c2.2,0,4,1.8,4,4v30C43,41.2,41.2,43,39,43z"/>
        <path fill="#B3E5FC" d="M33.6,25.4c0.1-0.4,0.1-0.9,0.1-1.4s0-0.9-0.1-1.4l2.8-2c0.3-0.2,0.4-0.6,0.2-0.9l-2.7-4.6 c-0.2-0.3-0.5-0.4-0.8-0.3L30,16.3c-0.7-0.6-1.5-1-2.4-1.4l-0.3-3.4c0-0.3-0.3-0.6-0.6-0.6h-5.3c-0.3,0-0.6,0.3-0.6,0.6L20.4,15 c-0.9,0.3-1.6,0.8-2.4,1.4l-3.1-1.4c-0.3-0.1-0.7,0-0.8,0.3l-2.7,4.6c-0.2,0.3-0.1,0.7,0.2,0.9l2.8,2c-0.1,0.4-0.1,0.9-0.1,1.4 s0,0.9,0.1,1.4l-2.8,2c-0.3,0.2-0.4,0.6-0.2,0.9l2.7,4.6c0.2,0.3,0.5,0.4,0.8,0.3l3.1-1.4c0.7,0.6,1.5,1,2.4,1.4l0.3,3.4 c0,0.3,0.3,0.6,0.6,0.6h5.3c0.3,0,0.6-0.3,0.6-0.6l0.3-3.4c0.9-0.3,1.6-0.8,2.4-1.4l3.1,1.4c0.3,0.1,0.7,0,0.8-0.3l2.7-4.6 c0.2-0.3,0.1-0.7-0.2-0.9L33.6,25.4z M24,29c-2.8,0-5-2.2-5-5c0-2.8,2.2-5,5-5c2.8,0,5,2.2,5,5C29,26.8,26.8,29,24,29z"/>
    </symbol>
</svg>