<?xml version="1.0" encoding="utf-8"?>
<!-- Generated by IcoMoon.io -->
<!DOCTYPE svg PUBLIC "-//W3C//DTD SVG 1.1//EN" "http://www.w3.org/Graphics/SVG/1.1/DTD/svg11.dtd">
<svg version="1.1" xmlns="http://www.w3.org/2000/svg" xmlns:xlink="http://www.w3.org/1999/xlink" width="32" height="32" viewBox="0 0 32 32">
<path fill="#673ab7" d="M25.333 29.333h-17.333v-26.667h17.333c1.467 0 2.667 1.2 2.667 2.667v21.333c0 1.467-1.2 2.667-2.667 2.667z"></path>
<path fill="#311b92" d="M6.667 2.667h1.333v26.667h-1.333c-1.467 0-2.667-1.2-2.667-2.667v-21.333c0-1.467 1.2-2.667 2.667-2.667z"></path>
<path fill="#fff" d="M24 16.133c-0.067 3.2-2.067 4.6-3.533 4.467-0.4-0.067-1.4-0.067-1.933-1.067-0.533 0.667-1.2 1.067-2.067 1.067-1.733 0-2.2-1.667-2.267-2.067-0.067-0.467-0.133-0.933-0.067-1.467 0.067-0.667 0.733-4.333 3.8-4.333 1.467 0 2.333 0.733 2.467 0.867l-0.4 4.533c0 0.2-0.133 1.067 0.733 1.067 1.4 0 1.6-2.6 1.6-3.067 0.067-0.8 0.2-5.467-4.667-5.467-4.6 0-5.267 4.933-5.333 6.133-0.333 5.667 4 5.667 4.8 5.667 1.133 0 2.467-0.467 2.6-0.533l0.267 1.333c-0.2 0.133-1.333 0.733-2.933 0.733-1.467 0-6.733-0.267-6.533-7.2 0.2-1.4 1.067-7.467 7.2-7.467s6.267 5.4 6.267 6.8zM16.067 17c-0.067 0.667 0 1.2 0.133 1.533s0.4 0.533 0.8 0.533c0.067 0 0.2 0 0.267-0.067 0.133-0.067 0.2-0.067 0.333-0.2 0.133-0.067 0.2-0.2 0.333-0.4 0.133-0.133 0.2-0.4 0.267-0.667l0.333-3.6c-0.133-0.067-0.333-0.067-0.467-0.067-0.333 0-0.6 0.067-0.8 0.2s-0.4 0.333-0.6 0.533c-0.133 0.267-0.267 0.533-0.4 0.867s-0.133 0.867-0.2 1.333z"></path>
</svg>
