<?xml version="1.0" encoding="utf-8"?>
<!-- Generated by IcoMoon.io -->
<!DOCTYPE svg PUBLIC "-//W3C//DTD SVG 1.1//EN" "http://www.w3.org/Graphics/SVG/1.1/DTD/svg11.dtd">
<svg version="1.1" xmlns="http://www.w3.org/2000/svg" xmlns:xlink="http://www.w3.org/1999/xlink" width="32" height="32" viewBox="0 0 32 32">
<path fill="#90caf9" d="M11.6 22h-1.6v-2.667h2.667l0.267 1c0.2 0.867-0.467 1.667-1.333 1.667z"></path>
<path fill="#90caf9" d="M24.667 24c0 0-7.867-4.667-12-4.667v-9.333c3.867 0 12-4.667 12-4.667v18.667z"></path>
<path fill="#283593" d="M9.333 14.667c0 1.841-1.492 3.333-3.333 3.333s-3.333-1.492-3.333-3.333c0-1.841 1.492-3.333 3.333-3.333s3.333 1.492 3.333 3.333z"></path>
<path fill="#283593" d="M26.667 12.667h-2v4h2c1.133 0 2-0.867 2-2s-0.867-2-2-2z"></path>
<path fill="#283593" d="M12.4 27.467c-0.6 0.4-1.667 0.8-3.067 0.933-0.4 0.067-0.8-0.2-0.933-0.667l-2.933-9.133c0 0 5.867-4.133 5.867 0.733 0 3.667 1 5.6 1.467 6.333 0.333 0.467 0.333 1.067 0 1.533-0.133 0.133-0.267 0.2-0.4 0.267z"></path>
<path fill="#3f51b5" d="M6 19.333h6.667v-9.333h-6.667c-0.733 0-1.333 0.6-1.333 1.333v6.667c0 0.733 0.6 1.333 1.333 1.333z"></path>
<path fill="#42a5f5" d="M25.333 25.333v0c-0.733 0-1.333-0.6-1.333-1.333v-18.667c0-0.733 0.6-1.333 1.333-1.333v0c0.733 0 1.333 0.6 1.333 1.333v18.667c0 0.733-0.6 1.333-1.333 1.333z"></path>
</svg>
