<?xml version="1.0" encoding="utf-8"?>
<!-- Generated by IcoMoon.io -->
<!DOCTYPE svg PUBLIC "-//W3C//DTD SVG 1.1//EN" "http://www.w3.org/Graphics/SVG/1.1/DTD/svg11.dtd">
<svg version="1.1" xmlns="http://www.w3.org/2000/svg" xmlns:xlink="http://www.w3.org/1999/xlink" width="32" height="32" viewBox="0 0 32 32">
<path fill="#8bc34a" d="M22.667 29.333h-13.333c-0.733 0-1.333-0.6-1.333-1.333v-22.667c0-0.733 0.6-1.333 1.333-1.333h13.333c0.733 0 1.333 0.6 1.333 1.333v22.667c0 0.733-0.6 1.333-1.333 1.333z"></path>
<path fill="#8bc34a" d="M18.667 8.667h-5.333c-0.4 0-0.667-0.267-0.667-0.667v-4.667c0-0.4 0.267-0.667 0.667-0.667h5.333c0.4 0 0.667 0.267 0.667 0.667v4.667c0 0.4-0.267 0.667-0.667 0.667z"></path>
<path fill="#ffeb3b" d="M20 16h-3.667l1.467-7.333-5.8 8.667h3.667l-1.467 7.333z"></path>
</svg>
