<?xml version="1.0" encoding="utf-8"?>
<!-- Generator: Adobe Illustrator 16.0.0, SVG Export Plug-In . SVG Version: 6.00 Build 0)  -->
<!DOCTYPE svg PUBLIC "-//W3C//DTD SVG 1.1//EN" "http://www.w3.org/Graphics/SVG/1.1/DTD/svg11.dtd">
<svg version="1.1" id="Layer_1" xmlns="http://www.w3.org/2000/svg" xmlns:xlink="http://www.w3.org/1999/xlink" x="0px" y="0px"
	 width="600px" height="250px" viewBox="0 0 600 250" enable-background="new 0 0 600 250" xml:space="preserve">
<g>
	<path fill="none" stroke="#4A87EE" stroke-width="16" d="M173,102c2.3,28.1-18.5,52.7-46.6,55c-28.1,2.3-52.7-18.5-55-46.6
		C69,82.3,89.9,57.7,118,55.4c15.8-1.3,31.4,4.8,42,16.6 M180,109h-53"/>
	<circle fill="none" stroke="#D83038" stroke-width="16" cx="227" cy="128" r="32"/>
	<circle fill="none" stroke="#F4C022" stroke-width="16" cx="313" cy="128" r="32"/>
	<path fill="none" stroke="#4A87EE" stroke-width="16" d="M401,160c-16.8,3.1-33-8.1-36-25c-3.1-16.8,8.1-33,25-36
		c3.7-0.7,7.4-0.7,11.1,0 M397,99c13.9,0,25.2,13.7,25.2,30.5S410.9,160,397,160 M423,93v79 M422,160c4.7,14.4-3.1,29.8-17.5,34.5
		s-29.8-3.1-34.5-17.5"/>
	<path fill="none" stroke="#4AB95A" stroke-width="16" d="M449,51v115"/>
	<path fill="none" stroke="#D83038" stroke-width="16" d="M529,118c-5.4-15.7-22.4-24-38.1-18.7s-24,22.4-18.7,38.1
		c5.4,15.7,22.4,24,38.1,18.7c7.1-2.4,13.1-7.5,16.7-14.1 M532,110l-62,28"/>
</g>
</svg>
